# xmcd
#
# Track frame offsets:
#	150
#	9502
#	22097
#	31875
#	41897
#	53065
#	67450
#	78100
#	93175
#	101147
#
# Disc length: 1537 seconds
#
# Revision: 1
# Processed by: cddbd v1.5.2PL0 Copyright (c) Steve Scherf et al.
# Submitted via: audiograbber 1.83.01
#
DISCID=7e05ff0a
DTITLE=Jimmy Crawford - A Ton Of Steel
DYEAR=1900
DGENRE=Steel Guitar
TTITLE0=Fireball Mail
TTITLE1=Together Again
TTITLE2=New Joe Clark
TTITLE3=Foggy Mountain Breakdow
TTITLE4=Lousiana Man
TTITLE5=Aftermath
TTITLE6=Hop Scotch
TTITLE7=Sea of Tranquility
TTITLE8=Lunar Tick
TTITLE9=Papaya
EXTD=
EXTT0=
EXTT1=
EXTT2=
EXTT3=
EXTT4=
EXTT5=
EXTT6=
EXTT7=
EXTT8=
EXTT9=
PLAYORDER=
